# xmcd
#
# Track frame offsets:
# 150
# 20630
# 41348
# 66622
# 70928
# 90008
# 108119
# 124351
# 144233
# 163301
# 182932
# 202902
# 234385
# 256043
# 283143
#
# Disc length: 4164 seconds
#
# Revision: 0
# Processed by: cddbd v1.5PL3 Copyright (c) Steve Scherf et al.
# Submitted via: Audion 3.0.2 (http://www.panic.com/audion/)
#
DISCID=d210420f
DTITLE=Bo Lozoff and Friends - Whatever It Takes
DYEAR=1900
DGENRE=
TTITLE0=The Great Equalizer
TTITLE1=Send Me a Sign
TTITLE2=When it Rains
TTITLE3=Moth to a Flame Into
TTITLE4=Like a Moth to a Flame
TTITLE5=Fresh and Reborn
TTITLE6=Old Glory
TTITLE7=The Heart of Country Music
TTITLE8=Sonny Boy
TTITLE9=Hold on to Your Day Job
TTITLE10=The Ballad of Walter the Pigeon
TTITLE11=Magic Man
TTITLE12=Eli's Arrow
TTITLE13=Holding On
TTITLE14=Pushing Sixty
EXTD=
EXTT0=
EXTT1=
EXTT2=
EXTT3=
EXTT4=
EXTT5=
EXTT6=
EXTT7=
EXTT8=
EXTT9=
EXTT10=
EXTT11=
EXTT12=
EXTT13=
EXTT14=
PLAYORDER=
